ffmpeg started on 2025-04-16 at 10:30:19
Report written to "D:\Convert\FFMetrics\reports\ssim_report-1.txt"
Log level: 32
Command line:
ffmpeg -hide_banner -nostdin -r 24000/1001 -i "G:\\\xc0\xed\xe8\xec\xe5\\\xce\xed\xe3\xee\xe8\xed\xe3\xe8\\!_37_\xc7\xe8\xec\xe0_2025\\JamClub\\\xcf\xee\xe4\xed\xff\xf2\xe8\xe5 \xf3\xf0\xee\xe2\xed\xff \xe2 \xee\xe4\xe8\xed\xee\xf7\xea\xf3\\\xd2\xc2-2\\JamClub_Ore_dake_Level_Up_na_Ken_Season_2_04_1080p_HEVC.mkv" -r 24000/1001 -i "G:\\\xc0\xed\xe8\xec\xe5\\\xce\xed\xe3\xee\xe8\xed\xe3\xe8\\!_37_\xc7\xe8\xec\xe0_2025\\JamClub\\\xcf\xee\xe4\xed\xff\xf2\xe8\xe5 \xf3\xf0\xee\xe2\xed\xff \xe2 \xee\xe4\xe8\xed\xee\xf7\xea\xf3\\\xd2\xc2-2\\JamClub_Ore_dake_Level_Up_na_Ken_Season_2_04_1080p.mp4" -lavfi "ssim=stats_file='D\\:/Convert/FFMetrics/logs/ssim_logfile-1.txt'" -f null -
Input #0, matroska,webm, from 'G:\Аниме\Онгоинги\!_37_Зима_2025\JamClub\Поднятие уровня в одиночку\ТВ-2\JamClub_Ore_dake_Level_Up_na_Ken_Season_2_04_1080p_HEVC.mkv':
  Metadata:
    COMPATIBLE_BRANDS: isomiso2avc1mp41
    MAJOR_BRAND     : isom
    MINOR_VERSION   : 512
    ENCODER         : Lavf61.7.100
  Duration: 00:24:02.26, start: -0.001000, bitrate: 1190 kb/s
  Stream #0:0: Video: hevc (Main 10), yuv420p10le(tv, bt709, progressive), 1920x1080 [SAR 1:1 DAR 16:9], 23.98 fps, 23.98 tbr, 1k tbn (default)
      Metadata:
        HANDLER_NAME    : VideoHandler
        VENDOR_ID       : [0][0][0][0]
        ENCODER         : Lavc61.19.100 libx265
        BPS             : 990283
        DURATION        : 00:24:02.190708333
        NUMBER_OF_FRAMES: 34578
        NUMBER_OF_BYTES : 178522132
        _STATISTICS_WRITING_APP: mkvpropedit v66.0.0 ('Josie') 64-bit
        _STATISTICS_WRITING_DATE_UTC: 2025-04-12 11:44:25
        _STATISTICS_TAGS: BPS DURATION NUMBER_OF_FRAMES NUMBER_OF_BYTES
  Stream #0:1(eng): Audio: aac (LC), 48000 Hz, stereo, fltp (default)
      Metadata:
        HANDLER_NAME    : SoundHandler
        VENDOR_ID       : [0][0][0][0]
        ENCODER         : Lavc61.19.100 aac
        BPS             : 196187
        DURATION        : 00:24:02.221000000
        NUMBER_OF_FRAMES: 67605
        NUMBER_OF_BYTES : 35368200
        _STATISTICS_WRITING_APP: mkvpropedit v66.0.0 ('Josie') 64-bit
        _STATISTICS_WRITING_DATE_UTC: 2025-04-12 11:44:25
        _STATISTICS_TAGS: BPS DURATION NUMBER_OF_FRAMES NUMBER_OF_BYTES
Input #1, mov,mp4,m4a,3gp,3g2,mj2, from 'G:\Аниме\Онгоинги\!_37_Зима_2025\JamClub\Поднятие уровня в одиночку\ТВ-2\JamClub_Ore_dake_Level_Up_na_Ken_Season_2_04_1080p.mp4':
  Metadata:
    major_brand     : isom
    minor_version   : 512
    compatible_brands: isomiso2avc1mp41
    encoder         : Lavf60.16.100
  Duration: 00:24:02.24, start: 0.000000, bitrate: 4306 kb/s
  Stream #1:0[0x1](und): Video: h264 (High) (avc1 / 0x31637661), yuv420p(progressive), 1920x1080 [SAR 1:1 DAR 16:9], 4108 kb/s, 23.98 fps, 23.98 tbr, 90k tbn (default)
      Metadata:
        handler_name    : VideoHandler
        vendor_id       : [0][0][0][0]
  Stream #1:1[0x2](eng): Audio: aac (LC) (mp4a / 0x6134706D), 48000 Hz, stereo, fltp, 191 kb/s (default)
      Metadata:
        handler_name    : SoundHandler
        vendor_id       : [0][0][0][0]
Stream mapping:
  Stream #0:0 (hevc) -> ssim
  Stream #1:0 (h264) -> ssim
  ssim:default -> Stream #0:0 (wrapped_avframe)
  Stream #0:1 -> #0:1 (aac (native) -> pcm_s16le (native))
Output #0, null, to 'pipe:':
  Metadata:
    COMPATIBLE_BRANDS: isomiso2avc1mp41
    MAJOR_BRAND     : isom
    MINOR_VERSION   : 512
    encoder         : Lavf61.7.100
  Stream #0:0: Video: wrapped_avframe, yuv420p10le(tv, bt709, progressive), 1920x1080 [SAR 1:1 DAR 16:9], q=2-31, 200 kb/s, 23.98 fps, 23.98 tbn
      Metadata:
        encoder         : Lavc61.19.100 wrapped_avframe
  Stream #0:1(eng): Audio: pcm_s16le, 48000 Hz, stereo, s16, 1536 kb/s (default)
      Metadata:
        HANDLER_NAME    : SoundHandler
        VENDOR_ID       : [0][0][0][0]
        _STATISTICS_TAGS: BPS DURATION NUMBER_OF_FRAMES NUMBER_OF_BYTES
        BPS             : 196187
        DURATION        : 00:24:02.221000000
        NUMBER_OF_FRAMES: 67605
        NUMBER_OF_BYTES : 35368200
        _STATISTICS_WRITING_APP: mkvpropedit v66.0.0 ('Josie') 64-bit
        _STATISTICS_WRITING_DATE_UTC: 2025-04-12 11:44:25
        encoder         : Lavc61.19.100 pcm_s16le
frame=  106 fps=0.0 q=-0.0 size=N/A time=00:00:04.42 bitrate=N/A speed=8.66x    frame=  262 fps=257 q=-0.0 size=N/A time=00:00:10.92 bitrate=N/A speed=10.7x    frame=  451 fps=294 q=-0.0 size=N/A time=00:00:18.81 bitrate=N/A speed=12.3x    frame=  686 fps=333 q=-0.0 size=N/A time=00:00:28.61 bitrate=N/A speed=13.9x    frame=  903 fps=351 q=-0.0 size=N/A time=00:00:37.66 bitrate=N/A speed=14.7x    frame= 1144 fps=372 q=-0.0 size=N/A time=00:00:47.71 bitrate=N/A speed=15.5x    frame= 1424 fps=395 q=-0.0 size=N/A time=00:00:59.39 bitrate=N/A speed=16.5x    frame= 1693 fps=411 q=-0.0 size=N/A time=00:01:10.61 bitrate=N/A speed=17.1x    frame= 1894 fps=409 q=-0.0 size=N/A time=00:01:18.99 bitrate=N/A speed=17.1x    frame= 2106 fps=409 q=-0.0 size=N/A time=00:01:27.83 bitrate=N/A speed=  17x    frame= 2309 fps=408 q=-0.0 size=N/A time=00:01:36.30 bitrate=N/A speed=  17x    frame= 2499 fps=405 q=-0.0 size=N/A time=00:01:44.22 bitrate=N/A speed=16.9x    frame= 2660 fps=397 q=-0.0 size=N/A time=00:01:50.94 bitrate=N/A speed=16.6x    frame= 2835 fps=393 q=-0.0 size=N/A time=00:01:58.24 bitrate=N/A speed=16.4x    frame= 3013 fps=390 q=-0.0 size=N/A time=00:02:05.66 bitrate=N/A speed=16.3x    frame= 3202 fps=388 q=-0.0 size=N/A time=00:02:13.55 bitrate=N/A speed=16.2x    frame= 3382 fps=386 q=-0.0 size=N/A time=00:02:21.05 bitrate=N/A speed=16.1x    frame= 3544 fps=382 q=-0.0 size=N/A time=00:02:27.81 bitrate=N/A speed=15.9x    frame= 3713 fps=379 q=-0.0 size=N/A time=00:02:34.86 bitrate=N/A speed=15.8x    frame= 3913 fps=380 q=-0.0 size=N/A time=00:02:43.20 bitrate=N/A speed=15.8x    frame= 4113 fps=380 q=-0.0 size=N/A time=00:02:51.54 bitrate=N/A speed=15.9x    frame= 4370 fps=386 q=-0.0 size=N/A time=00:03:02.26 bitrate=N/A speed=16.1x    frame= 4630 fps=391 q=-0.0 size=N/A time=00:03:13.10 bitrate=N/A speed=16.3x    frame= 4865 fps=393 q=-0.0 size=N/A time=00:03:22.91 bitrate=N/A speed=16.4x    frame= 5128 fps=398 q=-0.0 size=N/A time=00:03:33.92 bitrate=N/A speed=16.6x    frame= 5384 fps=401 q=-0.0 size=N/A time=00:03:44.55 bitrate=N/A speed=16.7x    frame= 5628 fps=404 q=-0.0 size=N/A time=00:03:54.73 bitrate=N/A speed=16.9x    frame= 5881 fps=407 q=-0.0 size=N/A time=00:04:05.28 bitrate=N/A speed=  17x    frame= 6146 fps=411 q=-0.0 size=N/A time=00:04:16.33 bitrate=N/A speed=17.1x    frame= 6392 fps=413 q=-0.0 size=N/A time=00:04:26.59 bitrate=N/A speed=17.2x    frame= 6652 fps=416 q=-0.0 size=N/A time=00:04:37.44 bitrate=N/A speed=17.4x    frame= 6899 fps=418 q=-0.0 size=N/A time=00:04:47.74 bitrate=N/A speed=17.4x    frame= 7173 fps=421 q=-0.0 size=N/A time=00:04:59.17 bitrate=N/A speed=17.6x    frame= 7416 fps=423 q=-0.0 size=N/A time=00:05:09.30 bitrate=N/A speed=17.6x    frame= 7664 fps=425 q=-0.0 size=N/A time=00:05:19.65 bitrate=N/A speed=17.7x    frame= 7950 fps=428 q=-0.0 size=N/A time=00:05:31.58 bitrate=N/A speed=17.9x    frame= 8226 fps=431 q=-0.0 size=N/A time=00:05:43.09 bitrate=N/A speed=  18x    frame= 8493 fps=433 q=-0.0 size=N/A time=00:05:54.22 bitrate=N/A speed=18.1x    frame= 8770 fps=436 q=-0.0 size=N/A time=00:06:05.78 bitrate=N/A speed=18.2x    frame= 8984 fps=435 q=-0.0 size=N/A time=00:06:14.70 bitrate=N/A speed=18.2x    frame= 9253 fps=438 q=-0.0 size=N/A time=00:06:25.92 bitrate=N/A speed=18.3x    frame= 9535 fps=440 q=-0.0 size=N/A time=00:06:37.68 bitrate=N/A speed=18.4x    frame= 9804 fps=442 q=-0.0 size=N/A time=00:06:48.90 bitrate=N/A speed=18.4x    frame=10051 fps=443 q=-0.0 size=N/A time=00:06:59.21 bitrate=N/A speed=18.5x    frame=10321 fps=445 q=-0.0 size=N/A time=00:07:10.47 bitrate=N/A speed=18.5x    frame=10583 fps=446 q=-0.0 size=N/A time=00:07:21.39 bitrate=N/A speed=18.6x    frame=10842 fps=447 q=-0.0 size=N/A time=00:07:32.20 bitrate=N/A speed=18.7x    frame=11077 fps=447 q=-0.0 size=N/A time=00:07:42.00 bitrate=N/A speed=18.7x    frame=11323 fps=448 q=-0.0 size=N/A time=00:07:52.26 bitrate=N/A speed=18.7x    frame=11571 fps=449 q=-0.0 size=N/A time=00:08:02.60 bitrate=N/A speed=18.7x    frame=11825 fps=449 q=-0.0 size=N/A time=00:08:13.20 bitrate=N/A speed=18.7x    frame=12095 fps=451 q=-0.0 size=N/A time=00:08:24.46 bitrate=N/A speed=18.8x    frame=12374 fps=452 q=-0.0 size=N/A time=00:08:36.09 bitrate=N/A speed=18.9x    frame=12651 fps=454 q=-0.0 size=N/A time=00:08:47.65 bitrate=N/A speed=18.9x    frame=12929 fps=455 q=-0.0 size=N/A time=00:08:59.24 bitrate=N/A speed=  19x    frame=13194 fps=457 q=-0.0 size=N/A time=00:09:10.29 bitrate=N/A speed=  19x    frame=13458 fps=458 q=-0.0 size=N/A time=00:09:21.31 bitrate=N/A speed=19.1x    frame=13729 fps=459 q=-0.0 size=N/A time=00:09:32.61 bitrate=N/A speed=19.1x    frame=14003 fps=460 q=-0.0 size=N/A time=00:09:44.04 bitrate=N/A speed=19.2x    frame=14280 fps=461 q=-0.0 size=N/A time=00:09:55.59 bitrate=N/A speed=19.2x    frame=14561 fps=462 q=-0.0 size=N/A time=00:10:07.31 bitrate=N/A speed=19.3x    frame=14841 fps=464 q=-0.0 size=N/A time=00:10:18.99 bitrate=N/A speed=19.3x    frame=15079 fps=464 q=-0.0 size=N/A time=00:10:28.91 bitrate=N/A speed=19.3x    frame=15302 fps=463 q=-0.0 size=N/A time=00:10:38.22 bitrate=N/A speed=19.3x    frame=15557 fps=464 q=-0.0 size=N/A time=00:10:48.85 bitrate=N/A speed=19.3x    frame=15821 fps=464 q=-0.0 size=N/A time=00:10:59.86 bitrate=N/A speed=19.4x    frame=16081 fps=465 q=-0.0 size=N/A time=00:11:10.71 bitrate=N/A speed=19.4x    frame=16356 fps=466 q=-0.0 size=N/A time=00:11:22.18 bitrate=N/A speed=19.4x    frame=16559 fps=465 q=-0.0 size=N/A time=00:11:30.64 bitrate=N/A speed=19.4x    frame=16756 fps=464 q=-0.0 size=N/A time=00:11:38.86 bitrate=N/A speed=19.3x    frame=17000 fps=464 q=-0.0 size=N/A time=00:11:49.04 bitrate=N/A speed=19.4x    frame=17277 fps=465 q=-0.0 size=N/A time=00:12:00.59 bitrate=N/A speed=19.4x    frame=17558 fps=466 q=-0.0 size=N/A time=00:12:12.31 bitrate=N/A speed=19.4x    frame=17823 fps=467 q=-0.0 size=N/A time=00:12:23.36 bitrate=N/A speed=19.5x    frame=18093 fps=467 q=-0.0 size=N/A time=00:12:34.62 bitrate=N/A speed=19.5x    frame=18371 fps=468 q=-0.0 size=N/A time=00:12:46.22 bitrate=N/A speed=19.5x    frame=18639 fps=469 q=-0.0 size=N/A time=00:12:57.40 bitrate=N/A speed=19.6x    frame=18921 fps=470 q=-0.0 size=N/A time=00:13:09.16 bitrate=N/A speed=19.6x    frame=19194 fps=471 q=-0.0 size=N/A time=00:13:20.54 bitrate=N/A speed=19.6x    frame=19444 fps=471 q=-0.0 size=N/A time=00:13:30.97 bitrate=N/A speed=19.6x    frame=19661 fps=470 q=-0.0 size=N/A time=00:13:40.02 bitrate=N/A speed=19.6x    frame=19881 fps=470 q=-0.0 size=N/A time=00:13:49.20 bitrate=N/A speed=19.6x    frame=20139 fps=470 q=-0.0 size=N/A time=00:13:59.96 bitrate=N/A speed=19.6x    frame=20405 fps=471 q=-0.0 size=N/A time=00:14:11.05 bitrate=N/A speed=19.6x    frame=20671 fps=471 q=-0.0 size=N/A time=00:14:22.15 bitrate=N/A speed=19.7x    frame=20927 fps=472 q=-0.0 size=N/A time=00:14:32.83 bitrate=N/A speed=19.7x    frame=21177 fps=472 q=-0.0 size=N/A time=00:14:43.25 bitrate=N/A speed=19.7x    frame=21395 fps=471 q=-0.0 size=N/A time=00:14:52.34 bitrate=N/A speed=19.6x    frame=21612 fps=471 q=-0.0 size=N/A time=00:15:01.40 bitrate=N/A speed=19.6x    frame=21831 fps=470 q=-0.0 size=N/A time=00:15:10.53 bitrate=N/A speed=19.6x    frame=22056 fps=470 q=-0.0 size=N/A time=00:15:19.91 bitrate=N/A speed=19.6x    frame=22303 fps=470 q=-0.0 size=N/A time=00:15:30.22 bitrate=N/A speed=19.6x    frame=22537 fps=470 q=-0.0 size=N/A time=00:15:39.98 bitrate=N/A speed=19.6x    frame=22772 fps=469 q=-0.0 size=N/A time=00:15:49.78 bitrate=N/A speed=19.6x    frame=23060 fps=470 q=-0.0 size=N/A time=00:16:01.79 bitrate=N/A speed=19.6x    frame=23313 fps=470 q=-0.0 size=N/A time=00:16:12.34 bitrate=N/A speed=19.6x    frame=23559 fps=471 q=-0.0 size=N/A time=00:16:22.60 bitrate=N/A speed=19.6x    frame=23833 fps=471 q=-0.0 size=N/A time=00:16:34.03 bitrate=N/A speed=19.6x    frame=24103 fps=472 q=-0.0 size=N/A time=00:16:45.29 bitrate=N/A speed=19.7x    frame=24361 fps=472 q=-0.0 size=N/A time=00:16:56.05 bitrate=N/A speed=19.7x    frame=24626 fps=472 q=-0.0 size=N/A time=00:17:07.10 bitrate=N/A speed=19.7x    frame=24855 fps=472 q=-0.0 size=N/A time=00:17:16.66 bitrate=N/A speed=19.7x    frame=25092 fps=472 q=-0.0 size=N/A time=00:17:26.54 bitrate=N/A speed=19.7x    frame=25301 fps=471 q=-0.0 size=N/A time=00:17:35.26 bitrate=N/A speed=19.7x    frame=25498 fps=470 q=-0.0 size=N/A time=00:17:43.47 bitrate=N/A speed=19.6x    frame=25694 fps=470 q=-0.0 size=N/A time=00:17:51.65 bitrate=N/A speed=19.6x    frame=25890 fps=469 q=-0.0 size=N/A time=00:17:59.82 bitrate=N/A speed=19.6x    frame=26105 fps=468 q=-0.0 size=N/A time=00:18:08.79 bitrate=N/A speed=19.5x    frame=26326 fps=468 q=-0.0 size=N/A time=00:18:18.01 bitrate=N/A speed=19.5x    frame=26511 fps=467 q=-0.0 size=N/A time=00:18:25.72 bitrate=N/A speed=19.5x    frame=26714 fps=466 q=-0.0 size=N/A time=00:18:34.19 bitrate=N/A speed=19.4x    frame=26928 fps=466 q=-0.0 size=N/A time=00:18:43.12 bitrate=N/A speed=19.4x    frame=27156 fps=466 q=-0.0 size=N/A time=00:18:52.63 bitrate=N/A speed=19.4x    frame=27400 fps=466 q=-0.0 size=N/A time=00:19:02.80 bitrate=N/A speed=19.4x    frame=27651 fps=466 q=-0.0 size=N/A time=00:19:13.27 bitrate=N/A speed=19.4x    frame=27859 fps=465 q=-0.0 size=N/A time=00:19:21.95 bitrate=N/A speed=19.4x    frame=28059 fps=465 q=-0.0 size=N/A time=00:19:30.29 bitrate=N/A speed=19.4x    frame=28276 fps=464 q=-0.0 size=N/A time=00:19:39.34 bitrate=N/A speed=19.4x    frame=28505 fps=464 q=-0.0 size=N/A time=00:19:48.89 bitrate=N/A speed=19.4x    frame=28718 fps=464 q=-0.0 size=N/A time=00:19:57.77 bitrate=N/A speed=19.3x    frame=28915 fps=463 q=-0.0 size=N/A time=00:20:05.99 bitrate=N/A speed=19.3x    frame=29145 fps=463 q=-0.0 size=N/A time=00:20:15.58 bitrate=N/A speed=19.3x    frame=29421 fps=463 q=-0.0 size=N/A time=00:20:27.10 bitrate=N/A speed=19.3x    frame=29662 fps=464 q=-0.0 size=N/A time=00:20:37.15 bitrate=N/A speed=19.3x    frame=29915 fps=464 q=-0.0 size=N/A time=00:20:47.70 bitrate=N/A speed=19.3x    frame=30162 fps=464 q=-0.0 size=N/A time=00:20:58.00 bitrate=N/A speed=19.3x    frame=30383 fps=464 q=-0.0 size=N/A time=00:21:07.22 bitrate=N/A speed=19.3x    frame=30584 fps=463 q=-0.0 size=N/A time=00:21:15.60 bitrate=N/A speed=19.3x    frame=30818 fps=463 q=-0.0 size=N/A time=00:21:25.36 bitrate=N/A speed=19.3x    frame=31061 fps=463 q=-0.0 size=N/A time=00:21:35.50 bitrate=N/A speed=19.3x    frame=31260 fps=462 q=-0.0 size=N/A time=00:21:43.80 bitrate=N/A speed=19.3x    frame=31482 fps=462 q=-0.0 size=N/A time=00:21:53.06 bitrate=N/A speed=19.3x    frame=31715 fps=462 q=-0.0 size=N/A time=00:22:02.77 bitrate=N/A speed=19.3x    frame=31952 fps=462 q=-0.0 size=N/A time=00:22:12.66 bitrate=N/A speed=19.3x    frame=32178 fps=462 q=-0.0 size=N/A time=00:22:22.09 bitrate=N/A speed=19.3x    frame=32406 fps=462 q=-0.0 size=N/A time=00:22:31.60 bitrate=N/A speed=19.3x    frame=32600 fps=461 q=-0.0 size=N/A time=00:22:39.69 bitrate=N/A speed=19.2x    frame=32822 fps=461 q=-0.0 size=N/A time=00:22:48.95 bitrate=N/A speed=19.2x    frame=33017 fps=460 q=-0.0 size=N/A time=00:22:57.08 bitrate=N/A speed=19.2x    frame=33248 fps=460 q=-0.0 size=N/A time=00:23:06.71 bitrate=N/A speed=19.2x    frame=33451 fps=460 q=-0.0 size=N/A time=00:23:15.18 bitrate=N/A speed=19.2x    frame=33610 fps=459 q=-0.0 size=N/A time=00:23:21.81 bitrate=N/A speed=19.1x    frame=33787 fps=458 q=-0.0 size=N/A time=00:23:29.19 bitrate=N/A speed=19.1x    frame=33973 fps=457 q=-0.0 size=N/A time=00:23:36.95 bitrate=N/A speed=19.1x    frame=34181 fps=457 q=-0.0 size=N/A time=00:23:45.63 bitrate=N/A speed=19.1x    frame=34388 fps=456 q=-0.0 size=N/A time=00:23:54.26 bitrate=N/A speed=  19x    frame=34559 fps=456 q=-0.0 size=N/A time=00:24:01.39 bitrate=N/A speed=  19x    [Parsed_ssim_0 @ 0000019eead24540] SSIM Y:0.994054 (22.257634) U:0.993596 (21.935359) V:0.993931 (22.168789) All:0.993957 (22.187488)
[out#0/null @ 0000019eec0f9200] video:14858KiB audio:270420KiB subtitle:0KiB other streams:0KiB global headers:0KiB muxing overhead: unknown
frame=34578 fps=455 q=-0.0 Lsize=N/A time=00:24:02.19 bitrate=N/A speed=  19x    
